<svg xmlns="http://www.w3.org/2000/svg" viewBox="0 0 200 50">
  <g fill="#343A40">
    <path d="M42,10c-5.5,0-10,4.5-10,10v15c0,5.5,4.5,10,10,10h15c5.5,0,10-4.5,10-10V20c0-5.5-4.5-10-10-10H42z M50,15
      c3.5,0,6.5,2.5,6.5,6s-3,6-6.5,6s-6.5-2.5-6.5-6S46.5,15,50,15z"/>
    <path d="M65,40c0,1.1-0.9,2-2,2H40c-1.1,0-2-0.9-2-2s0.9-2,2-2h23C64.1,38,65,38.9,65,40z"/>
    <path d="M70,30c0,1.1-0.9,2-2,2H40c-1.1,0-2-0.9-2-2s0.9-2,2-2h28C69.1,28,70,28.9,70,30z"/>
  </g>
  <text x="75" y="25" font-family="Arial, sans-serif" font-size="14" font-weight="bold" fill="#343A40">Digbizz</text>
  <text x="75" y="38" font-family="Arial, sans-serif" font-size="14" font-weight="bold" fill="#343A40">UMKM Doctor</text>
  <path d="M30,25 C30,15 20,10 15,15 C10,20 15,30 30,35" stroke="#FFD700" stroke-width="2" fill="none"/>
  <circle cx="15" cy="15" r="3" fill="#FFD700"/>
  <circle cx="20" cy="25" r="2" fill="#FFD700"/>
</svg>